<?xml version="1.0" encoding="UTF-8"?>
<svg id="Layer_1" xmlns="http://www.w3.org/2000/svg" version="1.1" viewBox="0 0 40 24">
  <!-- Generator: Adobe Illustrator 29.5.1, SVG Export Plug-In . SVG Version: 2.1.0 Build 141)  -->
  <defs>
    <style>
      .st0 {
        fill: #a3bfbd;
      }
    </style>
  </defs>
  <path class="st0" d="M24.3,3.2s-.2-.1-.5-.1-.6.1-.6.1v3.9s.2.1.5.1.6-.1.6-.1v-2.2l1.4,2.3s.2.1.5.1.6-.1.6-.1v-3.9s-.2-.1-.6-.1-.6.1-.6.1v2.2l-1.4-2.2Z"/>
  <path class="st0" d="M30.2,6.9h0c0-.3-.1-.4-.1-.4h-1.5v-1h1s.1-.1.1-.4-.1-.4-.1-.4h-1v-.7h1.4s.1-.1.1-.4-.1-.4-.1-.4h-2.5v4.1h2.6s.1-.1.1-.4Z"/>
  <path class="st0" d="M32.1,7.2h0c.4,0,.6-.1.6-.1l.4-1.8v-.3c0,0,0,.2.2.3l.4,1.8s.2.1.6.1.5-.1.5-.1l1.1-3.9s-.2-.1-.6-.1-.5.1-.5.1l-.6,2c0,.1,0,.2,0,.3v-.3c0,0-.6-2-.6-2-.1,0-.3-.1-.4-.1s-.3,0-.4.1l-.5,2c0,.1,0,.3,0,.3,0,0,0-.2,0-.3l-.6-2s-.2-.1-.6-.1-.6.1-.6.1l1.1,3.9c.2,0,.4.1.6.1Z"/>
  <path class="st0" d="M26,8.2h0c-.4,0-.5.2-.5.2l-.5.8c-.1.2-.2.4-.3.6,0-.2-.2-.4-.3-.6l-.5-.8s-.2-.1-.5-.1-.6.1-.6.1l1.3,2.2v1.6s.2.1.5.1.6-.1.6-.1v-1.6l1.3-2.3s-.2-.1-.6-.1Z"/>
  <path class="st0" d="M28.5,12.4c1.4,0,2-.8,2-2.1s-.6-2.1-2-2.1-2,.8-2,2.1.6,2.1,2,2.1ZM28.5,9c.6,0,.9.5.9,1.3s-.3,1.3-.9,1.3-.9-.5-.9-1.3.3-1.3.9-1.3Z"/>
  <path class="st0" d="M34.2,9.5h0c0-.9-.6-1.4-1.8-1.4s-1.3.2-1.3.2v3.9s.2.1.5.1.6-.1.6-.1v-1.4h.1c.1,0,.2,0,.2.2l.7,1.3c.2,0,.3.1.5.1s.6,0,.7-.1l-1-1.6c0,0,.7-.4.7-1.2ZM32.5,10.1h-.3v-1h.3c.4,0,.6.2.6.5s-.2.5-.6.5Z"/>
  <path class="st0" d="M35.9,8.4s-.2-.1-.5-.1h0c-.4,0-.6,0-.6,0v3.9s.2.1.6.1.5-.1.5-.1v-1.9l1.4,1.9s.2.1.6.1.5,0,.7-.1l-1.5-2,1.3-1.8s-.2-.2-.6-.2-.6.1-.6.1l-1.4,1.8v-1.8Z"/>
  <path class="st0" d="M24.7,16.8h0c-.6,0-1.1-.3-1.3-.4-.2.1-.4.4-.3.8.2.2.7.5,1.6.5,1.2,0,1.7-.6,1.7-1.3s-.4-1-1-1.2l-.6-.2c-.4-.2-.6-.2-.6-.4s.2-.4.6-.4.6,0,.9.3c.2,0,.4-.4.4-.8-.2-.2-.6-.3-1.3-.3-1.1,0-1.6.5-1.6,1.3s.4,1,.9,1.1l1,.3c.2,0,.3.2.3.3s-.2.4-.5.4Z"/>
  <path class="st0" d="M28.3,17.5s0,0,0,0c0,0,0,0,0,0h0Z"/>
  <path class="st0" d="M28.7,14.2h1.1s.1-.1.1-.4-.1-.4-.1-.4h-3.2s-.1.1-.1.4.1.4.1.4h1.1v3.2s.2.1.5.1c.4,0,.5-.1.5-.1v-3.2Z"/>
  <path class="st0" d="M31.6,13.4c-.4,0-.5.1-.5.1l-1.6,3.9s.2.1.6.1.5-.1.5-.1l.3-.7h1.5l.3.7s.2.1.5.1.6-.1.6-.1l-1.6-3.9s-.2-.1-.5-.1ZM31.2,15.9l.3-.7c0-.2.2-.4.2-.4,0,.2,0,.3.2.4l.3.7h-.9Z"/>
  <path class="st0" d="M33.4,13.4s-.1.1-.1.4.1.4.1.4h1v3.2s.2.1.6.1.5-.1.5-.1v-3.2h1.1s.1-.1.1-.4-.1-.4-.1-.4h-3.2Z"/>
  <path class="st0" d="M39.8,16.8h-1.5v-1h1s.1-.1.1-.4-.1-.4-.1-.4h-1v-.7h1.4s.1-.1.1-.4-.1-.4-.1-.4h-2.5v4.1h2.6s.1-.1.1-.4-.1-.4-.1-.4Z"/>
  <path class="st0" d="M30.7,21.1h0c-.2,0-.4,0-.6,0h-.5s0,0-.1,0c-.2-.1-.4-.2-.5-.2-.3,0-.6.1-.9.2-.4.1-.7.2-1.1.2-.8,0-1.5,0-2.1.2-.2,0-.3,0-.5.2h0c0-.3,0-.4-.1-.6.5-.3.7-.4.8-.6,0,0,0-.2,0-.3-.2-.3-.2-.9,0-1.4,0-.2,0-.4,0-.5s-.1-.3-.3-.3-.3.1-.3.3,0,.3,0,.5c0,.6-.1,1.2,0,1.6-.2.1-.4.2-.5.3,0,0-.1,0-.2,0,0,0-.1.1-.1.2,0,.2,0,.4.1.5,0,0,0,0,0,.1s0,0-.1.1l-.2.2s0,0,0,.2c0-.2,0-.4-.2-.6-.2-.2-.4-.3-.6-.4,0,0-.1,0-.2,0-.4-.3-.9-.5-1.3-.8h-.2c0,0-.1-.2-.2-.2-.1,0-.4-.2-.6-.3,0-.1-.2-.4-.3-.5s-.3-.1-.4-.1-.2,0-.2,0h-.1c-.2-.4-.3-.4-.4-.8v-.2c0-.3,0-.6-.3-.9-.1-.1-.2-.2-.4-.2,0,0-.1,0-.2,0,0,0,0,0,0,0,0-.1-.2-.2-.4-.3-.4-.2-1-.2-1.5-.2H.7v-1c.1,0,.2-.1.3-.2.1,0,.2-.1.3-.2.2-.1.3-.2.4-.4l.2-.2c.1,0,.2-.2.4-.2.2,0,.3-.2.5-.3.1-.1.2-.3.3-.4,0,0,0-.2.1-.2,0,0,.2-.1.2-.2.3-.2.8-.4.5-1,0,0,0-.1,0-.2,0-.2,0-.2,0-.4h0c0-.3.1-.7-.3-.9,0,0-.1,0-.2,0v-.4s0,0,.1,0c1.1-.4,2-.6,2.7-.5h.6l.9.2c.3,0,.4,0,.6.2.4.4.8.2,1.1.2.1,0,.2,0,.3,0h1.1c.2,0,.5,0,.7-.2,0,0,.1,0,.2,0,.1,0,.2,0,.4,0,0,0,.2,0,.2,0,.2,0,.3-.2.4-.3h0c0-.1.2-.2.3-.2h0c.2-.2.4-.3.5-.4h.2c.1,0,.3,0,.4,0,.6-.2.4-1,.3-1.3,0,0,0-.2,0-.3,0,0,0-.2.2-.4.2-.2.3-.4.3-.7s-.2-.6-.5-.7c-.1,0-.2,0-.3,0h0c0-.2.2-.2.2-.3,0,0,0,0,0,0,.1,0,.3-.2.4-.2.2-.1.5-.2.7-.4,0,0,.1-.1.2-.2.1-.1.2-.2.4-.3.2-.1.2-.4.2-.6h0c.1-.4.4-.6.8-.9.1-.1.2-.2.4-.3,0,0,.1-.1.2-.2.2-.2.5-.5.8-.6.2-.1.6-.3.8-.4.3-.1.4-.1.8,0h0c.8,0,1.6,0,2.4,0h1.2c.4,0,.3,0,.5,0,.3,0,.9-.1,1,0h0c0,0,0,.1,0,.2,0,0-.1.2-.1.4s0,.3.1.4c0,0,0,.2,0,.2,0,.2,0,.3,0,.5s.1.3.3.3.3-.1.3-.3,0-.2,0-.4c0,0,0-.2,0-.3,0-.2,0-.3-.1-.5,0,0,0,0,0,0,0-.1.1-.2.1-.4s0-.4-.2-.5c-.4-.3-1-.2-1.5-.2h-4c-.4,0-.6,0-1,.1-.3.1-.6.3-1,.5-.3.2-.6.5-.9.7l-.2.2c0,0-.2.2-.3.3-.4.3-.8.6-.9,1,0,0,0,.2,0,.3v.2c-.2.1-.3.2-.4.4l-.2.2c-.2.1-.4.2-.6.4-.2,0-.3.2-.4.2h0c-.2.2-.4.3-.5.5,0,.3,0,.8.4.9.2,0,.4,0,.4,0h0c0,.2,0,.3-.2.4-.2.2-.3.4-.3.8s0,.3,0,.4c0,.2.2.6,0,.6h-.2c-.2,0-.4,0-.6.2-.1.1-.2.2-.4.3h0c-.2.1-.3.2-.4.4,0,0,0,0,0,.1,0,0-.1,0-.2,0-.2,0-.3,0-.4,0,0,0-.2,0-.2,0-.2,0-.3.1-.4.1h-.4c-.2,0-.5,0-.8,0-.2,0-.3,0-.4.1-.2,0-.3.1-.4,0-.3-.2-.5-.3-.8-.4l-.9-.2h-.6c-.9-.1-1.8,0-3,.5-.4.2-.5.3-.5.6v.3c0,.2,0,.3,0,.4,0,.1.3.1.4.1h0v.2h0c0,.4,0,.6.1.8,0,0,0,0,0,.1q0,.1-.2.3c-.2,0-.3.2-.4.3,0,.1-.2.2-.2.4,0,.1-.1.2-.2.2-.1,0-.2.2-.4.2-.2,0-.3.2-.5.3-.1,0-.2.2-.3.3-.1.1-.2.2-.4.3,0,0-.2,0-.2.1-.2.1-.5.2-.6.4,0,0,0,.1,0,.2v1c0,.2,0,.4.2.6.2.2.4.1.6.1h15.3c.4,0,.9,0,1.3.2,0,0,.1.1.2.2,0,0,0,0,.1.1.1,0,.2.2.4.2,0,0,.2,0,.2.1,0,0,.1.2,0,.5v.2c0,.6.2.8.5,1.1h.1c.2.3.4.3.6.4h.1s0,.1,0,.2c0,.2.4.4.8.7,0,0,.1,0,.2,0h.2c.4.4.9.6,1.3.9,0,0,.2,0,.2.1.2,0,.3.2.4.2v.2c0,.2,0,.4,0,.6h0c0,.2,0,.2,0,.3v.3s0,0-.1,0c0,0,0,0,0,.1,0,.2-.1.3,0,.4,0,.1,0,.2.2.2,0,0,.1,0,.2,0s.2,0,.2,0c.2,0,.4,0,.6-.1h.2c.3-.1.7-.2,1-.2,0,0,.2,0,.4-.1.2,0,.6-.2.6-.2.2,0,.4,0,.6,0,.1,0,.2,0,.3-.1.3,0,.6,0,1-.2.2,0,.3-.1.4-.2s.2-.1.4-.2c.1,0,.2,0,.3,0,.2,0,.5-.2.7-.2h.3c.3-.2,1-.4,1-1s-.1-.2-.2-.3ZM29.4,21.7c-.2,0-.5.2-.7.2-.1,0-.2,0-.3,0-.2,0-.4.1-.5.2-.1,0-.2.1-.4.2-.2,0-.5.1-.8.1s-.4,0-.6.2c0,0-.2,0-.2,0-.2,0-.6,0-1,.2-.1,0-.2,0-.3,0-.3,0-.6.1-1,.2h-.2c0,0-.1,0-.2,0v-.4h0v-.2h0c0,0,0,0,0,0,0,0,.2,0,.3,0,.4-.2.8-.4,1.3-.6.6-.2,1.2-.2,2-.2s.9-.1,1.2-.3c.2,0,.5-.2.8-.2h0c0,0,.2.1.3.2,0,0,.2,0,.2,0h-.2c0,0,.2.1.2.1Z"/>
</svg>